<svg width="16" height="16" fill="none" xmlns="http://www.w3.org/2000/svg"><path d="M15.5 8a7.749 7.749 0 01-7.75 7.75c-.813 0-1.594-.094-2.313-.344.313-.5.782-1.344.97-2.031.093-.344.468-1.844.468-1.844.25.5 1 .906 1.781.906 2.344 0 4.031-2.156 4.031-4.812 0-2.563-2.093-4.5-4.78-4.5-3.345 0-5.126 2.25-5.126 4.688 0 1.156.594 2.562 1.563 3.03.156.063.25.032.281-.124 0-.094.156-.625.219-.875 0-.063 0-.156-.063-.219-.312-.375-.562-1.094-.562-1.781 0-1.688 1.281-3.344 3.5-3.344 1.875 0 3.218 1.281 3.218 3.156 0 2.094-1.062 3.532-2.437 3.532-.75 0-1.313-.626-1.156-1.376C7.562 8.876 8 7.875 8 7.22c0-.594-.313-1.094-.969-1.094-.781 0-1.406.813-1.406 1.875 0 .688.219 1.156.219 1.156s-.75 3.25-.907 3.844c-.156.688-.093 1.625-.03 2.219A7.714 7.714 0 010 8 7.749 7.749 0 017.75.25 7.749 7.749 0 0115.5 8z" fill="#707070"/></svg>